<?xml version="1.0" encoding="UTF-8" standalone="no"?><!DOCTYPE svg PUBLIC "-//W3C//DTD SVG 1.1//EN" "http://www.w3.org/Graphics/SVG/1.1/DTD/svg11.dtd"><svg width="100%" height="100%" viewBox="0 0 200 280" version="1.1" xmlns="http://www.w3.org/2000/svg" xmlns:xlink="http://www.w3.org/1999/xlink" xml:space="preserve" xmlns:serif="http://www.serif.com/" style="fill-rule:evenodd;clip-rule:evenodd;"><g><path d="M191,22l0,232c0,8.279 -6.721,15 -15,15l-152,0c-8.279,0 -15,-6.721 -15,-15l0,-232c0,-8.279 6.721,-15 15,-15l152,0c8.279,0 15,6.721 15,15Z" style="fill:#fff;stroke:#fdf8ed;stroke-width:5px;"/><path d="M185,24l0,228c0,6.071 -4.929,11 -11,11l-148,0c-6.071,0 -11,-4.929 -11,-11l0,-228c0,-6.071 4.929,-11 11,-11l148,0c6.071,0 11,4.929 11,11Z" style="fill:url(#_Radial1);stroke:#000;stroke-width:5px;"/><path d="M177,28l0,220c0,3.863 -3.137,7 -7,7l-140,0c-3.863,0 -7,-3.137 -7,-7l0,-220c0,-3.863 3.137,-7 7,-7l140,0c3.863,0 7,3.137 7,7Z" style="fill:none;stroke:#000;stroke-opacity:0.55;stroke-width:1.5px;"/><path d="M141.146,36.332c-1.441,0.847 -21.815,28.209 -43.835,66.009c-11.731,-37.518 -16.876,-64.598 -30.459,-64.598c-12.965,-0 -24.901,18.054 -24.901,18.054c-0,2.256 16.748,37.915 35.476,82.203c-12.348,25.67 -26.215,60.533 -31.155,86.203c-0.205,4.514 0.206,10.438 1.441,13.259c1.441,3.103 6.75,-0.989 6.75,-0.989c0,-0 0.758,2.701 1.992,2.701c0.824,0.282 -0.51,4.494 -0.51,4.494c-0,-0 2.675,-3.95 3.293,-4.796c-0,1.128 0.617,2.257 0.617,2.257c8.644,-24.542 20.125,-54.855 29.798,-74.319c11.319,23.414 21.858,52.88 33.588,64.446c6.998,5.923 17.493,3.385 24.491,-3.103c0.617,-0.565 2.263,-0.847 2.881,-1.693c0.411,-0.282 -6.15,-7.565 -5.739,-7.847c0.206,-0.282 8.208,6.719 8.414,6.437c0.412,-0.847 -1.44,-3.667 -1.235,-4.514c0.618,-3.667 0.618,-6.488 0.618,-6.488c-20.169,-25.67 -39.178,-55.181 -48.85,-80.005c26.136,-43.724 53.789,-66.117 54.201,-75.708c0.823,-17.489 -16.876,-22.003 -16.876,-22.003Z" style="fill-rule:nonzero;"/></g><defs><radialGradient id="_Radial1" cx="0" cy="0" r="1" gradientUnits="userSpaceOnUse" gradientTransform="matrix(137.5,0,0,137.5,100,125.5)"><stop offset="0" style="stop-color:#9b2633;stop-opacity:0.11"/><stop offset="1" style="stop-color:#9b2633;stop-opacity:0"/></radialGradient></defs></svg>